<?xml version="1.0" encoding="utf-8"?>
<!-- Generator: Adobe Illustrator 22.1.0, SVG Export Plug-In . SVG Version: 6.00 Build 0)  -->
<svg version="1.1" id="Layer_1" xmlns="http://www.w3.org/2000/svg" xmlns:xlink="http://www.w3.org/1999/xlink" x="0px" y="0px"
	 viewBox="0 0 190 45" style="enable-background:new 0 0 190 45;" xml:space="preserve">
<desc>ICO Hotel</desc>
<g id="Symbols">
	<g id="NAV_MOBILE" transform="translate(-20.000000, -20.000000)">
		<g id="Group">
			<g id="LOGO_ICO" transform="translate(20.000000, 20.000000)">
				<path id="Ico-Hotel" d="M1.8,41.4L1.8,41.4l14.3,0.1v-0.1c-1.3-3.6-2-5.9-2-10.7V17.2c0-4.9,0.7-7.1,2-10.7V6.4H1.8v0.1
					c1.3,3.7,2,5.6,2,10.8v13.3C3.8,35.7,3.2,37.7,1.8,41.4z M38.9,34.4l-0.2-0.1c-1,1-2.9,1.8-5.2,1.8c-3.8,0-7.6-2.2-7.6-9.5
					c0-5.2,2-8.4,4.1-8.4c1.9,0,4,2.4,7.6,7.9l0.5-0.1l-0.7-7.7c-1.5-0.4-3.6-1.1-6.7-1.1c-8.7,0-14.2,5.5-14.2,13.1
					c0,7.3,4.9,11.9,11.8,11.9C33.8,42.2,37.6,39.2,38.9,34.4z M52.6,42.2c-7.2,0-13.4-5.8-13.4-12.5s6.1-12.6,13.4-12.6
					c7.3,0,13.4,5.8,13.4,12.6S59.9,42.2,52.6,42.2z M52.6,41.3c2.7,0,3.9-4.3,3.9-11.6S55.3,18,52.6,18c-2.7,0-3.9,4.4-3.9,11.7
					S49.9,41.3,52.6,41.3z M72.8,41.4L72.8,41.4l14.3,0.1v-0.1c-1.3-3.6-2-5.9-2-10.7v-6.4h12.3v6.3c0,5.1-0.7,7.1-2,10.8v0.1h14.3
					v-0.1c-1.3-3.6-2-5.9-2-10.7V17.2c0-4.9,0.7-7.1,2-10.7V6.4H95.5v0.1c1.3,3.7,2,5.6,2,10.8v5.8H85.1v-5.8c0-4.9,0.7-7.1,2-10.7
					V6.4H72.8v0.1c1.3,3.7,2,5.6,2,10.8v13.3C74.8,35.7,74.1,37.7,72.8,41.4z M123.3,42.2c-7.2,0-13.4-5.8-13.4-12.5
					s6.1-12.6,13.4-12.6c7.3,0,13.4,5.8,13.4,12.6S130.7,42.2,123.3,42.2z M123.4,41.3c2.7,0,3.9-4.3,3.9-11.6S126,18,123.3,18
					c-2.7,0-3.9,4.4-3.9,11.7S120.7,41.3,123.4,41.3z M145.7,42.2c-4.5,0-7.3-2.1-7.3-7.1V19h-2.8v-0.5l11.5-6.3h0.6v5.7h5.5V19
					h-5.5v15.8c0,3.2,1.8,3.9,3.5,3.9c0.9,0,1.5-0.2,1.9-0.4c0.2-0.1,0.5-0.3,0.6-0.4l0.1,0.1C153,40,150.2,42.2,145.7,42.2z
					 M176.4,34.4c-1.4,4.8-5.2,7.8-11,7.8c-7.7,0-12.2-5.4-12.2-12.1c0-7.4,4.9-12.9,12.4-12.9c7.4,0,11,5.5,11,10.6l-13.8-0.1
					c0.5,6.8,3.7,8.4,7.6,8.4c3.6,0,5.4-1.4,5.9-1.8L176.4,34.4z M162.6,26.6l5,0v-2.5c0-4.4-1.1-6.1-2.4-6.1
					c-1.7,0-2.6,3.8-2.6,7.9V26.6z M177.3,41.4c0.6-2.2,1.2-3.9,1.2-7.9v-18c0-3.7-0.5-5.9-2.6-8.3V7l11.9-2.9v29.4
					c0,3.8,0.6,5.7,1.2,7.9v0.1L177.3,41.4L177.3,41.4z"/>
			</g>
		</g>
	</g>
</g>
</svg>
