<svg xmlns="http://www.w3.org/2000/svg" viewBox="0 0 15.37 14.623">
  <defs>
    <style>
      .cls-1 {
        fill: #22a8ff;
      }
    </style>
  </defs>
  <path id="linkedin" class="cls-1" d="M4.416,2.625A1.573,1.573,0,0,1,2.708,4.25,1.607,1.607,0,0,1,1,2.706,1.685,1.685,0,0,1,2.708,1,1.62,1.62,0,0,1,4.416,2.625ZM1,15.623H4.416V5.062H1Zm11.613-10.4A3.784,3.784,0,0,0,9.368,6.849H9.283L9.112,5.468H6.038c0,.894.085,1.95.085,3.168v6.987H9.539V9.855a2.388,2.388,0,0,1,.085-.812,1.812,1.812,0,0,1,1.622-1.3c1.2,0,1.708.975,1.708,2.275v5.606H16.37V9.611C16.37,6.605,14.748,5.224,12.613,5.224Z" transform="translate(-1 -1)"/>
</svg>
