<svg xmlns="http://www.w3.org/2000/svg" viewBox="0 0 19 12.819">
  <defs>
    <style>
      .cls-1 {
        fill: #fff;
        fill-rule: evenodd;
      }
    </style>
  </defs>
  <path id="Twitter" class="cls-1" d="M58.11,4.816h0a2.947,2.947,0,0,0-2.543-.858h0a2.92,2.92,0,0,0,1.5-.572c0-.144,0-.287-.15-.287a2.914,2.914,0,0,0-1.2.287c.449-.287.6-.431.6-.573a2.838,2.838,0,0,0-1.5.716c.149-.287.3-.43.149-.574a1.149,1.149,0,0,0-.6.574,3.015,3.015,0,0,0-.9,1.144h0a12.356,12.356,0,0,0-1.346,2.864h-.15A3.487,3.487,0,0,0,50.63,6.391a15.553,15.553,0,0,0-2.244-1.144A16.577,16.577,0,0,0,45.543,4.1a2.638,2.638,0,0,0,1.5,2.433h0a2.636,2.636,0,0,0-1.047.144c0,.859.748,1.574,2.094,1.861h0a2.49,2.49,0,0,0-1.346.429,2.331,2.331,0,0,0,2.394,1.145,2.173,2.173,0,0,1-.449.288.609.609,0,0,0-.15.714c.3.431.6.574,1.347.574h0a4.891,4.891,0,0,1-3.89,1.431h0A4.932,4.932,0,0,1,43,11.832a9.854,9.854,0,0,0,4.338,3.292,11.2,11.2,0,0,0,6.134.143h0a10.7,10.7,0,0,0,5.087-3.293,6.68,6.68,0,0,0,1.2-2.576A2.682,2.682,0,0,0,62,8.539h0A3.681,3.681,0,0,1,59.9,8.4h0c1.048-.144,1.8-.43,1.945-1a3.052,3.052,0,0,1-2.244,0,3.885,3.885,0,0,0-1.5-2.578Z" transform="translate(-43 -2.813)"/>
</svg>
